<?xml version="1.0" encoding="utf-8"?>
<!DOCTYPE svg PUBLIC "-//W3C//DTD SVG 1.0//EN" "http://www.w3.org/TR/2001/REC-SVG-20010904/DTD/svg10.dtd">
<svg version="1.0" xmlns="http://www.w3.org/2000/svg" width="768px" height="1376px" viewBox="0 0 768 1376" preserveAspectRatio="xMidYMid meet">
 <g fill="#000000">
  <path d="M528 1180.1 c-11.5 -1.3 -16.8 -5.2 -18.9 -14.2 -0.6 -2.4 -2.4 -16.1 -4.1 -30.4 -1.6 -14.3 -5.9 -50.7 -9.5 -81 -9.2 -77.6 -19.2 -163 -20.6 -176.3 l-1.2 -11.3 -2.4 5.8 c-1.2 3.2 -2.9 6.9 -3.7 8.3 -2.5 4.4 -11.6 37.7 -11.6 42.5 0 0.1 -0.9 0.5 -2 0.8 -1.9 0.5 -2 1.4 -2 14.1 0 13.1 -0.1 13.6 -2.1 13.6 -2 0 -2 0.3 -1.3 14 0.7 13.9 0.7 14 -1.5 14 -1.1 0 -2.1 0.3 -2.1 0.8 0 3.8 3.4 21.4 5.4 28.2 3.2 10.6 3.4 17 0.7 17 -1.7 0 -1.9 1.3 -2.3 21.6 -0.4 20 -0.5 21.7 -2.3 23 -1.3 1 -2.3 3.7 -3.1 8.2 -1.5 8.5 -3 12.2 -4.8 12.2 -0.9 0 -2.2 1.3 -3.1 3 -1.4 2.7 -1.4 3.1 0.9 6.5 3.7 5.4 4.9 10.1 4.3 16.3 -1 9.6 -5.3 11.7 -25.6 12.9 -9 0.5 -17 -0.8 -41.8 -7 l-13.3 -3.3 -3.7 2.3 c-2.1 1.3 -4.6 2.3 -5.5 2.3 -1 0 -4.9 1.6 -8.7 3.5 l-6.8 3.5 -0.5 5.2 c-0.4 4.2 -1.1 5.7 -3.7 8 -1.7 1.5 -3.7 2.8 -4.4 2.8 -0.7 0 -3 0.9 -5.2 2 -4.3 2.2 -9.8 2.5 -16 0.9 -2.2 -0.6 -8 -1 -12.9 -0.9 -13.4 0.2 -16.6 -1.7 -35.3 -20.6 -14.5 -14.8 -15.3 -15.4 -19.1 -15.4 -3.1 0 -4.5 -0.6 -6 -2.5 -1.2 -1.5 -3 -2.5 -4.5 -2.5 -3 0 -5 -1.8 -8.9 -8.2 -1.8 -2.9 -3.7 -4.8 -4.8 -4.8 -1.9 0 -5.2 -6 -6.5 -11.8 -0.4 -2.1 -1.5 -3.6 -2.9 -4.2 -1.5 -0.5 -2.5 -2.3 -3.4 -5.8 -1.6 -5.9 0.3 -5.4 -28.2 -7.8 -45.5 -3.8 -107 -1.1 -119.2 5.2 l-3.3 1.7 5 4.4 c6.6 5.8 21.2 12.9 41.5 20.3 18.7 6.8 21.4 8.3 21.8 12.9 0.6 5.5 -0.8 6.1 -12.7 6.1 -17.5 0 -36.8 -4.8 -54.8 -13.6 -19.4 -9.5 -26.3 -17.7 -26.3 -31.3 0 -17.2 11.8 -25.7 43.6 -31.1 19.2 -3.3 62.4 -5.7 109.9 -6.3 l19 -0.2 0.3 -7.7 c0.2 -6.7 0.1 -7.8 -1.4 -7.8 -1.5 0 -1.6 -1.1 -1.1 -9.2 0.4 -5.1 0.8 -12.4 1 -16.3 0.2 -4.8 1.6 -10.5 4.1 -18 2.2 -6.2 3.8 -12.6 3.7 -14.7 -0.1 -2.2 0.9 -5.9 2.4 -9.1 1.4 -3 2.5 -7.1 2.5 -9.1 0 -4.8 1.4 -7.3 12 -22 4.8 -6.8 9.3 -13.4 10 -14.7 0.7 -1.3 2.6 -4 4.2 -5.9 1.7 -2.1 2.8 -4.6 2.8 -6.4 0 -2.5 2.6 -5.4 17 -19.4 16.2 -15.6 17 -16.6 17 -20.2 0 -3.5 0.7 -4.5 7.5 -10.7 6.2 -5.7 7.5 -7.5 7.5 -10 0 -2.4 1.7 -4.9 8.5 -12.2 5.4 -5.9 8.5 -10.1 8.5 -11.5 0 -1.2 2.9 -6 6.4 -10.7 11.1 -14.7 20.6 -31.6 20.6 -36.7 0 -1.6 2 -6.4 4.5 -10.8 2.8 -4.9 4.5 -9.1 4.5 -11.2 0 -1.8 1.1 -5.5 2.5 -8.2 1.7 -3.3 2.1 -5.1 1.4 -5.6 -1.1 -0.7 -0.8 -6.6 0.6 -9.7 0.6 -1.5 0.4 -1.6 -2 -0.7 -1.4 0.5 -8.4 1 -15.4 1 -10.2 0 -14.8 -0.5 -22.3 -2.4 -22.7 -5.7 -39.3 -18.7 -48.1 -37.3 -2.8 -6.1 -3.2 -8 -3.5 -17.6 -0.5 -12.3 0.9 -11 -13.2 -12.7 -4.6 -0.5 -16.6 -1 -26.5 -1 -19.1 0 -25.6 -1 -33.8 -5.1 -6.4 -3.3 -12.4 -8.5 -15.4 -13.6 -5.6 -9.7 -10.6 -38.1 -10.6 -60.8 0 -22.8 3.8 -38.5 14.1 -59 2.5 -4.9 7.5 -15.6 11.2 -23.6 12.1 -26.4 17.3 -32.3 49 -55.4 27.2 -19.8 38.1 -24.5 54.3 -23.2 17 1.3 27.4 9 52.7 39.2 7.3 8.8 24.4 27 37.8 40.5 20.5 20.5 37.1 38.9 40.9 45.3 0.5 0.9 3.3 1.6 7.8 2 3.9 0.2 7.8 0.8 8.7 1.2 1.6 0.7 1.7 0.4 0.2 -4.7 -2 -6.9 -7.5 -18.6 -11.5 -24.5 -1.8 -2.7 -10.1 -11.9 -18.5 -20.5 -17 -17.4 -26.6 -30.4 -34.4 -46.2 -5.4 -11.2 -11 -27.1 -13.5 -38.6 -2.2 -10.3 -3.1 -38.8 -1.6 -52 6.6 -57.5 37.4 -108.9 72.7 -121 13.7 -4.8 35.2 -4.7 49.4 0 25.9 8.6 47.5 35.2 55.5 68.4 3.4 13.9 4.7 32.4 3.5 49.9 -2.4 35.2 -12 69.9 -30 107.7 -14.4 30.3 -17.4 41.8 -17.5 66 0 13 1.4 28.9 3.1 35 0.3 1.3 3.3 1.5 18.6 1.6 15.2 0 19.7 0.4 26.8 2.1 5 1.3 13 2.3 19.5 2.6 16.6 0.6 28.2 5.7 34.3 14.9 2.4 3.7 2.7 5.3 3 13.9 0.3 8.8 0.1 10.4 -2.1 15.3 -3.4 7.4 -10.7 14.5 -18.9 18.4 -6 2.8 -6.6 3.4 -7.3 6.8 -1.3 7.4 -6.8 20.6 -11.4 27.7 -7.7 11.8 -19.8 21.4 -33.6 26.8 -5.4 2.1 -7 3.2 -6.8 4.6 0.6 5.3 3.4 25.2 3.9 27.6 0.4 1.7 1.7 3.3 3.4 4.2 6.5 3.3 11.4 17.9 10.8 31.5 -0.3 6.7 0 7.9 2 10.5 2 2.5 2.3 3.9 2.1 10 -0.1 5 0.3 8 1.5 10.4 1.3 2.4 1.6 4.8 1.3 9 -1 10.5 -2.6 17.4 -4.8 20.4 l-2.1 3 7.6 47.6 c4.2 26.2 16.9 103.2 28.2 171.1 22.4 134.4 22.5 135.1 17.4 140.5 -1.3 1.4 -4.7 3.2 -7.5 4 -10.2 2.9 -34.3 4.8 -45.5 3.6z m23.1 -15.6 c13.8 -1.6 17.9 -2.7 17.9 -4.9 0 -0.7 -6.3 -39.1 -14 -85.2 -16.3 -97.9 -31.2 -189.1 -37 -225.8 -2.2 -14.3 -4.2 -26.1 -4.4 -26.4 -1.2 -1.1 -17.8 8.4 -22.7 13.1 l-5.6 5.3 1.4 11.5 c1.9 15.4 16.3 137.2 27.4 230.9 10.1 85.2 9 80 17.3 81.9 5.8 1.3 5.7 1.3 19.7 -0.4z m-237.5 -27.9 c0.7 -1.9 -1.7 -7.4 -4.9 -11.2 -1.5 -1.8 -2.7 -4.3 -2.7 -5.7 0 -2.1 -0.7 -2.6 -4.7 -3.7 -2.7 -0.7 -5.6 -1.4 -6.6 -1.7 -1.4 -0.4 -1.7 -1.3 -1.5 -4.6 l0.3 -4.2 8 0 c4.4 0 9.8 0.4 12.1 0.8 l4.1 0.8 2.2 -5.2 c4 -9.1 5.5 -19 4.2 -27.3 -2.4 -16.4 -9.7 -31.4 -22.3 -45.7 -6.6 -7.5 -7.8 -9.4 -7.8 -12.4 0 -3.4 0.1 -3.5 3.8 -3.5 9.1 0 22.7 13.4 30.8 30.5 5.9 12.1 7.4 18.7 8.1 33.5 0.6 14 -0.9 23.3 -5.1 32.5 -1.9 4.2 -2.2 5.7 -1.3 6.9 1 1.3 3.2 0.4 15.8 -7.3 18.2 -11 22.4 -13.9 31.1 -21.3 18.2 -15.7 32.7 -37.9 41.2 -63.3 l3.3 -10 3.9 0 3.9 0 -0.2 7.5 c-0.5 19.6 -14 47.3 -32.6 66.7 l-7.9 8.2 9.9 -3.4 c7.4 -2.6 11.5 -3.5 16.5 -3.5 l6.8 0 2.4 -4.7 c1.3 -2.7 3 -6.7 3.7 -9.1 0.7 -2.4 2.1 -4.8 3.1 -5.3 1.5 -0.8 1.8 -2.3 1.8 -10.4 0 -10.3 0.5 -12.5 2.8 -12.5 1.3 0 1.4 -1.6 0.8 -12.7 -0.4 -7.1 -1.1 -18.2 -1.7 -24.8 -0.5 -6.6 -1.2 -21.5 -1.5 -33.1 -0.6 -19.2 -0.5 -21.2 1.1 -22.8 1.5 -1.4 1.9 -4.1 2.3 -13.8 0.4 -10.7 0.7 -12.1 2.3 -12.5 1.5 -0.4 1.9 -1.5 1.9 -5.7 0 -2.8 0.7 -8.9 1.5 -13.6 0.8 -4.7 1.5 -8.6 1.5 -8.7 0 -0.2 0.8 -0.3 1.9 -0.3 1.4 0 2.1 -1 2.6 -3.7 0.5 -3.1 7.3 -24.9 9.3 -30.2 0.8 -2.1 -2.6 0.1 -8 5.3 -2.7 2.6 -5.2 4.6 -5.7 4.6 -0.5 0 -1.1 1.2 -1.3 2.8 -0.4 3.8 -5.5 5.3 -19.5 6 -8.7 0.3 -11.3 0.8 -11.3 1.8 0 2.3 -10.2 1.7 -18.6 -1.1 -4.1 -1.4 -9.2 -2.5 -11.3 -2.5 -2.6 0 -5.1 -0.9 -7.9 -3 -2.7 -1.9 -5.4 -3 -7.6 -3 -2.8 0 -4.2 -0.9 -8.4 -5.5 -2.8 -3.1 -6.6 -8.5 -8.4 -12.2 -2.8 -5.7 -3.3 -7.9 -3.6 -16 l-0.4 -9.4 3.8 0.3 c3.8 0.3 3.9 0.3 6.4 7.8 2.2 6.7 2.8 7.5 5.3 7.8 2 0.2 3.8 1.8 6.4 5.3 2.8 3.6 4.4 4.9 6.3 4.9 1.5 0 5.3 2 9.2 4.8 5.1 3.8 7.3 4.8 9.5 4.5 1.5 -0.3 7.4 0.5 13 1.6 12.9 2.7 16.3 2.7 16.3 0.3 0 -1.3 1.2 -2.2 3.8 -3 4.7 -1.4 14.2 -7.5 22.5 -14.4 10.9 -9 41.7 -36.2 41.7 -36.9 0 -1.3 -4.2 -5.9 -5.3 -5.9 -0.7 0 -3.7 2 -6.7 4.6 -12.3 10.1 -30 20.1 -40.7 22.9 -7.2 1.9 -15.4 1.9 -19.7 0.1 -3.9 -1.6 -10.6 -9.9 -10.6 -13.1 0 -1.3 -1.6 -4.9 -3.5 -8.1 -4.5 -7.4 -7.4 -16.7 -8.2 -26.2 l-0.6 -7.3 4.3 0.3 c4.2 0.3 4.4 0.4 6.1 5.5 3.1 9.3 7.9 18.2 13.4 25 3.6 4.4 5.5 7.7 5.5 9.5 0 1.7 0.7 2.9 1.9 3.3 3.8 1.2 24.7 -8.6 34.8 -16.2 l3.2 -2.5 -3.2 -6.1 c-2.7 -5.2 -3.2 -7.3 -3.2 -12.9 0 -5.6 0.4 -7 2.4 -9.2 1.3 -1.4 3.9 -2.8 5.7 -3.2 3 -0.5 3.4 -1 3.9 -4.8 0.3 -2.2 1.1 -8.8 1.9 -14.6 0.8 -5.8 1.8 -13.3 2.1 -16.7 l0.7 -6.3 -3.6 0 c-3.6 0 -3.6 0 -3.6 -4.3 0 -3.8 0.6 -4.8 4.5 -8.7 l4.4 -4.4 -7 -1.8 c-12.3 -3.1 -26.2 -13.2 -47.4 -34.7 -6 -6.1 -11.4 -11.1 -12 -11.1 -0.6 0 -2.7 1.1 -4.7 2.5 -2.2 1.5 -5.1 2.5 -7.2 2.5 -3.5 0 -3.6 -0.1 -3.6 -4 0 -3.2 0.7 -4.8 3.5 -7.9 5.3 -5.8 11.3 -8.3 21.8 -8.9 l8.7 -0.5 0 5.1 c0 4.9 0 5 4.3 6.7 7.9 3.2 20.2 7.3 26.6 9 33.1 8.5 70.3 -7.4 84.1 -35.8 2.2 -4.5 4.2 -9.6 4.6 -11.3 0.6 -2.9 0.6 -2.9 -6.6 -4.6 -12 -2.8 -20.5 -9.7 -24.7 -19.9 -1.3 -3.2 -1.8 -7 -1.8 -14 0 -8.6 0.3 -10.2 3.1 -15.7 l3 -6.1 -3.5 -0.6 c-6.1 -1.2 -23.3 -0.6 -32.6 1 -4.9 0.9 -14.3 3.4 -20.9 5.5 -13.7 4.6 -17.5 4.8 -26.9 1.6 l-6.8 -2.3 3.8 3.9 c2.2 2.2 4.7 3.8 6 3.8 2.1 0 2.3 0.5 2.3 4.9 0 9.4 -4.7 18.2 -15.6 29.3 -13.3 13.5 -31.2 23.7 -42.2 24.1 l-5.7 0.2 -0.3 -3.7 c-0.2 -2.7 0.2 -4 1.6 -5 2 -1.3 1.9 -1.5 -1.4 -6.8 -7 -11.3 -8.2 -29.9 -2.8 -42.1 3.5 -7.7 9.8 -13.4 17.2 -15.5 5.6 -1.7 20.6 -1.6 24.6 0.1 1.4 0.6 1.1 -0.2 -1.3 -3.5 -2.7 -3.7 -3.1 -5.1 -3.1 -10.6 l0 -6.4 -5.5 2.7 c-4.9 2.4 -5.4 3 -5.7 6.2 -0.3 3.4 -0.8 3.9 -8.3 7.8 -16.5 8.8 -23.5 21.6 -23.5 43.2 -0.1 16.7 -4 23 -17.3 27.5 -1.5 0.5 -1.2 1.2 2.2 5.7 2.2 2.9 4.5 7.2 5.2 9.7 1.4 4.9 1.8 22.2 0.7 26.3 -0.6 2.2 -0.4 2.8 1.2 3.2 2.4 0.6 2.5 2.7 0.9 16.7 -0.6 5.2 -1 12.2 -0.9 15.6 0.1 8.7 -5.4 30.2 -10.1 39.6 -1.1 2.1 -1.9 4.9 -1.9 6.3 0 3 -9.8 22.8 -18 36.4 -3.1 5.3 -7.1 12.2 -8.9 15.3 -1.8 3.1 -5.2 8.4 -7.6 11.8 -2.5 3.3 -4.5 7 -4.5 8.3 0 1.3 -2.9 5.5 -7 10.4 -3.9 4.5 -7 9.1 -7 10.2 0 2.4 -9.7 13.8 -24.7 29.1 -5.7 5.7 -10.3 11 -10.3 11.6 0 0.7 -2.7 4.4 -6 8.4 -9.5 11.4 -18 23.6 -18 26 0 1.1 -1.6 4.5 -3.5 7.5 -8.7 13.6 -18 36.5 -17.6 43.4 0.1 2.6 -0.7 7.1 -2.1 10.8 -1.8 5.3 -2 6.6 -0.9 7.3 1.6 0.9 1.2 4.8 -1.4 18.5 -0.9 4.4 -1.8 16 -2.2 25.8 -0.6 17.4 -0.6 17.7 1.5 17.7 1.7 0 2.3 1 3.2 5.8 2.3 11.2 3 13.2 4.9 13.2 1.3 0 2.4 1.7 4 6 2 5.4 2.5 6 5 6 2.2 0 3.7 1.1 6.4 4.3 1.9 2.4 7.1 6.7 11.4 9.7 4.6 3.2 12.7 10.4 20 18 11.8 12.3 20.1 19 23.6 19 2.3 0 2.1 -0.7 -1 -4.9 -3.1 -4.1 -4.3 -5.2 -9.6 -8.7 -3.4 -2.2 -3.8 -2.9 -3.5 -6.2 0.3 -3.5 0.5 -3.7 4.2 -4 9 -0.8 19.9 7 23 16.5 1.6 5 3.6 7.5 6.6 8.6 2.4 0.9 3 0.8 3.6 -0.7z m99.4 -21.1 c-1.3 -1.3 -4.4 -3.2 -6.9 -4.1 -2.5 -0.9 -5.5 -2 -6.6 -2.5 -1.4 -0.6 -3.9 -0.3 -8 1 l-5.9 1.8 9.4 2.2 c5.2 1.1 11.3 2.5 13.5 3 6.6 1.5 7.1 1.3 4.5 -1.4z m-215.4 -63.1 c-0.3 -0.9 -0.6 -2.4 -0.6 -3.5 0 -1.8 -1.1 -1.9 -27.1 -1.9 -27 0 -59.6 1.4 -72.6 3 -5 0.7 -2.4 0.8 10.2 0.5 17.7 -0.5 62.5 1 75.5 2.4 12.8 1.4 15.3 1.3 14.6 -0.5z m-108.8 -1.1 c-1 -0.2 -2.8 -0.2 -4 0 -1.3 0.2 -0.5 0.4 1.7 0.4 2.2 0.1 3.2 -0.1 2.3 -0.4z m425.2 -248 c-1.3 -1 -2 -2.5 -2 -4.9 0 -3 0.6 -3.8 4.6 -6.4 l4.6 -2.9 -4.4 -0.3 -4.3 -0.3 -0.3 -5 c-0.3 -4.6 0 -5.3 3.3 -8.5 1.9 -1.8 3.5 -3.8 3.5 -4.3 0 -1.1 -4.5 2 -16 11.4 -5.2 4.2 -10.9 8.4 -12.7 9.3 -3.7 1.9 -15.3 2.2 -18.5 0.5 -1.8 -1 -1.7 -0.6 0.8 3.9 2.5 4.5 3 4.9 5.2 4.1 1.3 -0.5 4.7 -0.9 7.5 -0.9 7 0 12.6 3.2 15.2 8.6 l2 4.2 6.8 -3.5 c6.4 -3.4 6.6 -3.6 4.7 -5z m-25.6 -27.5 l5.4 -4.2 -2.7 -2.6 c-1.4 -1.5 -3.8 -2.9 -5.3 -3.2 -2.6 -0.5 -2.8 -0.3 -3.3 4.1 -0.3 2.5 -0.8 5.8 -1 7.4 -0.3 1.5 0 2.7 0.5 2.7 0.6 0 3.4 -1.9 6.4 -4.2z m16.8 -24.9 c5.6 -1.3 8.8 -2.5 8.5 -3.2 -1 -3 -12.3 -0.9 -17.7 3.3 -3.2 2.5 -1.8 2.5 9.2 -0.1z m2.3 -18.8 l3 -0.7 -2.7 -1.7 c-2.4 -1.6 -2.9 -1.7 -6.1 -0.4 -5.1 2.2 -5.6 3.7 -1 3.6 2.1 -0.1 5.2 -0.4 6.8 -0.8z m-166.9 -31.6 c3.5 -1.7 6.6 -4.2 8.6 -6.9 l3 -4.1 -3.6 -0.3 c-3.3 -0.3 -3.6 -0.6 -3.6 -3.5 0 -1.8 1.1 -5.9 2.5 -9.2 2 -4.9 2.2 -6.1 1 -6.3 -0.9 -0.2 -1.5 -1.5 -1.5 -3.3 l0 -2.9 -6.5 0 c-8.5 0 -14.1 -2 -25 -9.1 -21.8 -14.1 -34.8 -16.3 -43 -7.3 -1.7 1.9 -4.1 3.4 -5.3 3.4 -4.9 0 -1.7 14 5.7 24.9 9.3 13.6 26.2 23.5 47.1 27.5 5.9 1.1 15.1 -0.2 20.6 -2.9z m141.4 -12.1 c0 -0.2 -1.3 -0.4 -3 -0.4 -2 0 -3 0.5 -3 1.4 0 1.2 0.6 1.3 3 0.5 1.7 -0.6 3 -1.3 3 -1.5z m-135.5 -37.4 c0.9 -1.5 -7.4 -9.1 -13.4 -12.4 -4.6 -2.5 -6.8 -3 -15 -3.3 l-9.6 -0.5 4 2.2 c2.2 1.2 8 4.7 12.9 7.7 4.8 3 9.8 5.8 11 6.3 2.9 1.2 9.4 1.2 10.1 0z m-80.9 -24 c2.6 -1.6 7.2 -3.4 10.3 -4.1 l5.6 -1.2 -3.3 -1.4 c-7.6 -3.1 -32.2 -9.7 -54.2 -14.4 -12.9 -2.8 -27.2 -5.9 -31.8 -7 -4.5 -1 -9.6 -1.9 -11.2 -1.9 -3.7 0 -6 3.2 -6 8.1 0 2.5 -0.5 3.9 -1.5 4.1 -2.4 0.5 2.6 10.3 6.3 12.2 4.6 2.4 14 3.5 39.7 4.6 13.2 0.6 27.4 1.7 31.5 2.4 4.1 0.8 8 1.4 8.7 1.5 0.7 0 3.3 -1.2 5.9 -2.9z m61.8 -8.2 c0.8 -5.1 1.9 -4.2 -18.9 -16.9 -43.8 -26.9 -66.8 -37.3 -107.2 -48.5 -22.3 -6.1 -24.2 -6.3 -27.2 -3 -1.5 1.6 -3.5 2.6 -5.3 2.6 l-2.8 0 0 10.8 c0 5.9 0.5 14.4 1.1 18.8 1.1 7.9 1.2 8.1 3 6.3 4.3 -4.3 11.8 -3.8 42.7 2.6 54 11.4 68.2 15.6 92.6 27.6 6.9 3.3 8.9 3.9 14.7 3.9 l6.6 0 0.7 -4.2z m19.4 0.3 c10.4 -5.3 10.6 -5.7 11.2 -24.9 0.5 -15 0.9 -17.3 3.2 -22.9 1.4 -3.5 2.4 -6.3 2.3 -6.3 -0.1 0 -2.1 2.5 -4.4 5.5 -8.6 11.4 -15.5 26.6 -19.1 42.2 -1.1 4.6 -2 8.6 -2 8.8 0 1.2 3.6 0.2 8.8 -2.4z m52.9 -4.3 c-2.8 -3.8 -3.5 -13.9 -1.4 -19.1 2.3 -5.5 6.7 -7.7 15.2 -7.7 5.2 0 7.8 0.5 10.2 2 4.8 2.9 5.2 0.5 0.6 -3.8 -12.5 -11.9 -30.8 -6 -35.9 11.6 -1.9 6.3 -0.8 13.2 3.2 20 l2.5 4.3 3.9 -2.2 3.8 -2.2 -2.1 -2.9z m160.8 -7.2 c6 -2.8 12.5 -9 14.9 -14.5 1.8 -3.9 1.8 -4 -0.6 -8.3 -5.8 -10.6 -26 -16.1 -38.1 -10.4 -7.4 3.6 -10.4 11.8 -7.3 20 0.9 2.5 2.4 5 3.2 5.6 1.2 1.1 1.4 0.4 1.4 -4.3 0 -7.8 0.5 -8.7 5 -8.7 3.7 0 3.8 0.1 4.5 4.2 1.2 7.1 3.4 12.1 6.7 15.5 1.8 1.8 3.7 3.3 4.2 3.3 0.6 0 3.4 -1.1 6.1 -2.4z m-225.9 -17.5 l2.7 -7.5 -4.9 -4.3 c-4.2 -3.8 -50.2 -35.3 -72.4 -49.6 -9.4 -6.1 -34.2 -18.5 -47.7 -23.7 -9.9 -3.9 -16.6 -5 -17.8 -3 -0.3 0.6 -2.5 1 -4.9 1 -4.2 0 -4.3 0 -7.8 6.8 -3.3 6.2 -9.8 21 -11.2 25.7 -0.5 1.9 -0.1 2 9.2 2.1 10.1 0.2 23.5 3.1 47.5 10.5 27.6 8.5 59.3 24.2 91.7 45.3 9.7 6.4 11.6 7.3 12.1 5.8 0.4 -0.9 1.9 -5 3.5 -9.1z m13.9 -26.2 l4.8 -7 -7.9 -8.1 c-23.5 -23.9 -85.9 -71.1 -111.8 -84.7 -8.4 -4.5 -12.6 -4 -21.1 2.5 -1.6 1.2 -4.8 2.4 -6.9 2.6 -3.9 0.3 -4 0.4 -9.3 10.3 -2.9 5.5 -5.3 10.3 -5.3 10.8 0 0.4 3.9 0.7 8.6 0.7 11.3 0 21.1 3.2 44.9 14.9 14.6 7.2 23.9 12.8 49.5 29.9 17.3 11.6 35.3 24.2 40 28 4.7 3.9 8.8 7.1 9.1 7.1 0.3 0.1 2.7 -3.1 5.4 -7z m89.7 -6.9 l3.3 -2 -3 0 c-3.6 0 -6 1.4 -5.1 2.9 0.9 1.4 1 1.4 4.8 -0.9z m33 -7.7 c-1 -5.3 -1.5 -15.3 -1.6 -30.8 -0.1 -33 2.4 -43.7 17.9 -76.5 7.8 -16.3 12.5 -27.2 12.5 -28.7 0 -0.4 -2.3 3.3 -5.1 8.2 -13.9 24.3 -32.6 43 -49.7 49.6 -4.2 1.6 -8 2.2 -14.2 2.3 l-8.5 0.1 -0.3 -4.1 -0.3 -4.1 4.7 -0.7 c6.8 -0.9 19.7 -7.5 27.6 -14 27.2 -22.6 46.8 -63.4 51.9 -108.1 1.9 -17.3 -0.8 -37.7 -7.6 -57.4 -3.8 -10.9 -4.6 -18.1 -2 -18.1 2.6 0 0 -3.7 -8.5 -12.1 -9 -9 -20.1 -15 -31.9 -17.5 -6.7 -1.3 -8.3 -1.3 -14.9 0 -22.5 4.6 -41.4 21.9 -56.1 51.4 -6.4 12.7 -10.4 23.1 -13.6 34.7 -10.3 38.4 -8 67.6 8 101.2 8 16.7 16 27.8 33 45.3 15 15.4 20.9 22.9 25.7 32.5 3.8 7.5 7.5 19.2 8.8 28.1 0.7 4.3 1.4 8.8 1.6 9.9 0.2 1.4 2.7 3.2 8.1 5.7 4.3 2 9.6 5.2 11.8 7.2 2.2 1.9 4 3.5 4.1 3.6 0 0 -0.6 -3.5 -1.4 -7.7z m-101.2 -9.4 c0 -1.5 -12.3 -17.2 -19.2 -24.5 -9.7 -10.2 -21.8 -20.4 -41.8 -35.4 -19.6 -14.7 -30.8 -24.6 -40 -35.6 -9.3 -11 -12.8 -14.4 -15 -14.4 -1 0 -2 -0.4 -2.2 -0.9 -0.1 -0.5 -6.9 3.9 -15 9.9 l-14.7 10.7 6.5 0.7 c7.4 0.8 9 1.4 19.9 7.5 30.1 17.1 92.8 65.8 107.5 83.6 l5.3 6.4 4.3 -3.7 c2.4 -2 4.4 -3.9 4.4 -4.3z m14 -7.2 l3.1 -1.4 -3.7 -4.9 c-11.2 -14.9 -22.2 -25.2 -59.4 -55.9 -24 -19.8 -35.2 -30.6 -37.9 -36.5 -1.3 -2.9 -2.1 -6.6 -2.1 -10.6 0 -5.9 -0.1 -6.2 -2.8 -6.7 -1.6 -0.3 -4.7 -0.1 -7.1 0.4 -4.6 1 -12.5 4.8 -10.2 4.9 0.7 0 9.1 7.8 18.5 17.3 13.5 13.7 20.8 20.2 34.8 30.6 32.1 24 47.5 38.8 58.3 56.1 2.8 4.3 5.1 7.9 5.1 8 0.1 0 1.6 -0.6 3.4 -1.3z m-64.3 -85.4 c-8 -9.4 -21.2 -22.4 -24.7 -24.3 -2.1 -1.1 -2.1 -1.1 -0.6 1.7 1.9 3.8 10.9 13 22.6 23.1 5.2 4.5 9.6 8.2 9.8 8.2 0.2 0 -3 -3.9 -7.1 -8.7z m198 -118.5 c-0.2 -1.3 -0.4 -0.5 -0.4 1.7 -0.1 2.2 0.1 3.2 0.4 2.3 0.2 -1 0.2 -2.8 0 -4z"/>
 </g>
 <g fill="none">
  <path d="M0 688 l0 -688 384 0 384 0 0 688 0 688 -384 0 -384 0 0 -688z m556.9 487.9 c17.6 -2 22.9 -4.9 23.8 -13.1 0.3 -2.8 -6.1 -43.6 -18.6 -118.8 -10.5 -63 -23.4 -141 -28.6 -173.5 l-9.5 -58.9 2.7 -3.9 c1.8 -2.7 2.8 -5.3 2.8 -8.1 0.1 -2.2 0.7 -5.1 1.3 -6.3 2.3 -4.2 1 -9.2 -3.2 -12.5 -2 -1.6 -2 -1.8 -0.3 -4.6 2.7 -4.7 2.2 -9.8 -1.3 -13.3 l-3 -3 1.2 -6.7 c0.9 -5.6 0.9 -7.9 -0.6 -14.1 -1.9 -8.9 -5.6 -15.5 -9.6 -17.6 -1.7 -0.9 -3 -2.5 -3.4 -4.2 -1.3 -6.8 -4.7 -32.6 -4.4 -33.9 0.2 -0.9 3.5 -2.8 7.3 -4.3 13.7 -5.3 25.9 -15 33.6 -26.8 4.6 -7.1 10.1 -20.3 11.4 -27.7 0.7 -3.4 1.3 -4 7.3 -6.8 8.2 -3.9 15.5 -11 18.9 -18.4 3.4 -7.6 3.1 -17.1 -0.9 -23.2 -6.1 -9.2 -17.8 -14.3 -34.3 -14.9 -6.6 -0.3 -14.4 -1.3 -19.5 -2.6 -7.2 -1.8 -11.3 -2.1 -26.7 -2.1 -15.7 0 -18.4 -0.2 -18.7 -1.6 -1.8 -6.5 -3.1 -22.4 -3.1 -38 0 -27.5 2.6 -37.7 17.5 -69 26.7 -56.2 36.3 -111 26.6 -151.4 -8 -33.3 -29.7 -60 -55.5 -68.6 -17.7 -5.9 -39.5 -3.9 -54.4 4.8 -36.8 21.7 -64.7 84.3 -62.4 140.2 0.6 15.5 2.4 25.1 7.3 40 8.3 25.1 20.1 43.4 42.8 66.8 20.1 20.8 25 28.1 30.1 45.8 3.1 10.5 3.3 13.9 0.8 12.9 -6.8 -3 -12.6 -4.4 -17.4 -4.5 -3.8 0 -5.9 -0.4 -6.2 -1.3 -1.7 -4.4 -19.3 -24.1 -38.1 -42.7 -12 -11.8 -26.3 -26.9 -31.9 -33.4 -5.6 -6.6 -13.5 -15.8 -17.5 -20.5 -19.5 -22.8 -34.7 -31.2 -51 -28.2 -10 1.8 -20.7 7.6 -41.2 22.6 -31.7 23.1 -36.9 29 -49 55.4 -3.7 8 -8.7 18.7 -11.2 23.6 -13 25.7 -16.7 49.9 -12.4 79.2 3.8 25.5 7.8 36.1 15.9 42.6 10.7 8.7 18.6 10.7 42.2 10.7 9.9 0 21.9 0.5 26.5 1 14.1 1.7 12.7 0.4 13.2 12.7 0.3 9.6 0.7 11.5 3.5 17.6 11.4 24 37.9 39.7 67.4 39.7 10.2 0 19.2 -2.3 21.9 -5.5 1.6 -1.9 3 -1.9 3 -0.1 0 0.7 -1.3 4.2 -2.9 7.7 -3 6.6 -3.1 8.2 -0.6 7.2 2.3 -0.8 1.8 1.6 -1.9 9.4 -2.3 4.8 -3.1 7.3 -2.3 7.6 1.2 0.4 -3 9.7 -8.5 19.1 -1.6 2.8 -1.9 4 -1.1 4.3 2.5 0.9 -10.2 23.5 -21.4 38.3 -3.9 5.1 -6.2 9.2 -6 10.2 0.3 1.1 -2.6 5 -8.4 11.4 -4.9 5.3 -8.9 10.1 -8.9 10.5 0 0.4 1 0.9 2.1 1.1 1.8 0.2 0.4 1.9 -7.5 9.1 -5.3 4.9 -9.6 9.2 -9.6 9.7 0 0.5 1.2 1 2.7 1.2 2.4 0.3 0.9 2 -17 19.4 -10.8 10.5 -19.7 19.5 -19.7 19.9 0 0.4 0.9 0.5 2 0.2 2.4 -0.6 2.1 0.1 -3.5 6.8 -2.3 2.8 -4.8 6.1 -5.5 7.4 -0.7 1.3 -5.2 7.9 -10 14.7 -11.7 16.2 -13.9 20.4 -10.5 20.4 2 0 1.9 0.4 -0.9 4.9 -1.4 2.1 -3.2 5.5 -4 7.5 -1.3 3.1 -1.3 3.6 0 3.6 1.8 0 1.9 -0.3 -1.6 8.6 -2.9 7.2 -8 23.5 -8 25.5 0 0.5 0.6 0.9 1.4 0.9 1.1 0 1 1.3 -0.5 6.7 -1.1 3.7 -1.9 8.5 -1.9 10.7 0 3.9 0 3.9 2 2.1 l2.1 -1.9 -0.7 11.5 c-0.3 6.3 -0.7 12 -1 12.7 -0.2 0.9 -5.8 1.2 -23.1 1.2 -53.2 0.1 -95.3 3.1 -118.8 8.6 -30.2 7.1 -39.5 26.3 -20.9 43.3 13.1 12 47.4 24 68.5 24.1 10.7 0 12.4 -2.7 4.3 -6.8 -1.1 -0.6 -8.6 -3.4 -16.5 -6.2 -24.4 -8.8 -42.5 -18.6 -45.9 -25 -2.6 -4.9 1.6 -8.3 13.3 -10.5 22.1 -4.1 78.5 -5.2 114.7 -2.1 28.3 2.4 26.6 1.9 28 7.5 1.5 5.5 2.7 7.1 3.9 5.3 0.5 -0.9 1.2 0.3 2.1 3.5 2.2 8.2 5 13.4 6.9 12.8 1.1 -0.3 2.4 0.9 4.3 4.3 1.5 2.6 3.7 5.8 5 7.2 l2.3 2.4 0.9 -2.6 0.9 -2.6 3.1 4.6 c3.3 4.8 5.6 6.4 5.6 3.8 0 -0.9 0.3 -1.6 0.7 -1.6 1.7 0 9 6.6 21.8 19.6 16.3 16.5 22 20.1 30.2 19 7.5 -1 9.4 -0.9 16 0.9 6 1.7 6.3 1.7 10.5 -0.3 2.4 -1.1 5.2 -2.3 6.4 -2.6 3.9 -1.2 6.7 -5.2 7.2 -10.6 0.4 -4.9 0.6 -5.1 5.6 -7.6 2.8 -1.4 6.5 -3.4 8.3 -4.5 1.9 -1.2 3.3 -1.5 3.5 -0.9 0.2 0.6 2.3 -0.2 4.9 -1.8 l4.5 -2.9 15.3 3.8 c24.3 6.1 35.5 8.1 41.3 7.6 16.5 -1.6 21 -3.7 22.3 -10.3 0.7 -4 -2.2 -11.4 -6.2 -15.6 l-2.6 -2.7 2.4 -4.7 c1.3 -2.5 3.3 -5 4.5 -5.4 2.2 -0.9 4 -5.7 5 -13.6 0.4 -3.3 1.4 -5.5 2.8 -6.6 2 -1.6 2.1 -2.4 2.1 -24.6 l0 -22.9 2.3 1.5 c2.9 1.9 2.9 1.1 -0.4 -9.8 -2.8 -9.5 -5.4 -25 -5.4 -32.3 0 -4.5 0.1 -4.7 2 -3.7 2 1 2 0.8 1.4 -14.2 -0.5 -12.7 -0.4 -15.1 0.7 -14 0.7 0.6 1.7 1.2 2.1 1.2 0.4 0 0.8 -5.8 0.8 -12.9 0 -13.9 0.4 -16.3 2.6 -15.4 0.8 0.3 1.4 0.3 1.4 0 0 -4.9 9.1 -38.5 11.4 -42.2 0.7 -1.1 2.4 -4.9 3.9 -8.5 3.4 -8.4 6.1 -13.9 6.8 -14 0.3 0 1.3 6.9 2.3 15.3 2.7 23.8 13.9 119.6 21.1 180.2 3.6 30.3 7.9 66.7 9.5 81 1.7 14.3 3.5 28 4.1 30.4 3.1 13.5 13.5 16.5 44.8 13z"/>
  <path d="M528.4 1167.9 c-8.3 -1.9 -7.2 3.3 -17.3 -81.9 -7.4 -62.9 -19 -160.8 -27.8 -234.2 l-1.6 -13.6 5.9 -5.6 c4.2 -4 9.1 -7.2 16.9 -11 6.1 -3 11.3 -5.1 11.6 -4.7 0.4 0.3 2.3 11.4 4.3 24.6 5.1 32.7 21.7 134.7 38.6 236 7.7 46.2 13.8 84.5 13.5 85.2 -0.8 2.2 -5 3.3 -18.4 4.8 -14 1.7 -19.6 1.7 -25.7 0.4z"/>
  <path d="M307 1140.3 c-3 -1.1 -5 -3.6 -6.6 -8.6 -2.1 -6.3 -8.4 -12.8 -14.8 -15.2 -6.5 -2.5 -8.4 -0.7 -3 2.9 5.4 3.5 6.6 4.6 9.7 8.7 3.3 4.4 3.7 10.4 0.8 11.4 -5.9 1.8 -14.2 -3.7 -28.9 -19.1 -6.9 -7.3 -14.9 -14.4 -19.2 -17.4 -4.1 -2.8 -9.6 -7.4 -12.2 -10.3 -4.5 -4.9 -4.8 -5.1 -6.1 -3.2 -1.4 1.8 -1.6 1.7 -3.4 -2.1 -1.1 -2.1 -2.6 -5.6 -3.3 -7.7 -0.9 -3 -1.6 -3.7 -3 -3.2 -1.8 0.6 -2.3 -0.8 -5.5 -16.2 -0.7 -3.5 -1.4 -4 -3.3 -2.1 -0.9 0.9 -1.2 -2.5 -1.2 -15.4 0 -15.4 1.7 -33.4 4 -43.3 1 -4.5 0.7 -5.3 -1.5 -3.5 -0.9 0.7 -1.8 1.1 -2 0.8 -0.3 -0.3 1.1 -5.2 3 -10.9 1.9 -5.7 3.5 -10.8 3.5 -11.2 0 -0.4 -1 -0.3 -2.2 0.4 -1.7 0.9 -2 0.9 -1.5 -0.2 0.3 -0.8 3 -7.9 6.1 -15.7 6.3 -15.9 9.9 -23.4 15.2 -31.8 2.4 -3.7 3.2 -5.9 2.5 -6.3 -1.1 -0.7 9.8 -16.4 19.6 -27.9 2.9 -3.5 5.1 -6.7 4.8 -7.1 -0.2 -0.5 4.4 -5.7 10.3 -11.7 15.5 -15.6 25.5 -27.3 24.8 -29.1 -0.4 -0.9 2.3 -4.7 6.9 -10.1 4.1 -4.8 7.5 -9 7.5 -9.4 0 -0.5 -0.7 -0.8 -1.6 -0.8 -1.1 0 -0.3 -1.5 2.6 -4.7 2.3 -2.6 6 -7.9 8.4 -11.8 17.6 -28.9 30 -52.4 29 -54.9 -0.3 -0.7 0.6 -3.6 1.9 -6.2 4 -7.9 10.7 -30.9 10.7 -36.6 0 -1.8 -0.2 -1.9 -1.7 -0.7 -1.5 1.2 -1.6 1.2 -0.9 -0.6 2.7 -7.1 5.1 -28.5 3.1 -28.4 -0.5 0.1 -1.9 2.9 -3 6.4 -2.8 8.4 -6.3 12.8 -13.2 16.2 -5.3 2.6 -6.7 2.8 -16.8 2.8 -8.3 -0.1 -12.9 -0.6 -18.8 -2.3 -27.2 -7.7 -45.7 -27.7 -45.8 -49.3 0 -8.3 1.8 -12.6 7.5 -17.5 6.9 -5.9 12 -6.8 35.1 -6 11 0.4 21.7 1 23.8 1.3 5.7 0.9 15.7 7.3 19.9 12.9 5.1 6.7 5 8 -1.2 9.3 -7.5 1.6 -12.7 0 -26.4 -8.3 -14.3 -8.5 -19.9 -11 -28.4 -12.6 -9.6 -1.7 -16.2 0 -21.8 5.6 -2.7 2.6 -4.4 5.2 -4.4 6.6 0.1 2.2 0.2 2.1 2.8 -0.9 3.5 -4.2 8.8 -6.3 16 -6.3 10.2 0 19.2 3.5 34.4 13.4 4.6 2.9 10.5 6.1 13.1 7 5.4 1.8 13.3 2.1 17.3 0.6 2.4 -1 2.6 -0.9 2.1 1.2 -0.2 1.3 -0.8 3.1 -1.2 4.1 -0.5 1.3 -0.2 1.7 1.5 1.7 1.9 0 2.1 0.4 1.5 3.3 -0.4 1.7 -1.8 5.9 -3.1 9.2 -1.3 3.2 -2.1 6.1 -1.8 6.5 1.1 1 6.4 -6.4 7.8 -10.9 2.1 -6.6 3.1 -14.1 1.8 -14.1 -0.7 0 -0.9 -1.3 -0.5 -3.4 1.1 -6.7 -4.4 -17.1 -11.7 -22.3 -2.2 -1.5 -4 -3 -4 -3.3 0 -0.3 3.4 -1.5 7.5 -2.8 13.4 -4 17.5 -10.5 17.5 -27.6 0 -21.2 7.1 -34.2 23.5 -42.9 7.5 -4 8 -4.4 8.1 -7.6 0 -3.1 0.5 -3.6 5.5 -6.2 6 -3.1 14.1 -4.5 17.8 -3.1 l2.5 0.9 -3 0.7 c-4.4 1.1 -5.4 2.4 -5.4 7.1 0 8.5 8.6 16.1 23.7 21.1 l8.2 2.7 10.8 -3.6 c14.4 -4.9 21.8 -6.5 35.3 -7.7 10.2 -0.9 28.4 0 32.8 1.5 0.9 0.3 0.4 1.6 -1.7 4.2 -5.1 6.4 -7.4 12.9 -7.4 20.8 0.1 15.9 11.2 27.8 28.8 30.8 3.6 0.6 6.5 1.4 6.5 1.8 0 2.2 -5.6 17.3 -8.3 22.4 -9.1 17 -29.2 30.3 -51.7 34.2 -10.2 1.8 -28.4 1.2 -37.5 -1.2 -15.5 -4.2 -38.2 -13.6 -37.1 -15.4 0.3 -0.5 1.9 -1.1 3.6 -1.4 1.9 -0.4 3 -1.3 3 -2.3 0 -1.5 -0.8 -1.6 -6 -1.1 -7.6 0.8 -14 3.9 -18.5 8.8 -3 3.4 -4.4 5.9 -3.1 5.9 0.2 0 2.9 -1.6 6.1 -3.5 5.3 -3.2 5.9 -3.3 8.4 -2 1.4 0.7 7.3 6.2 13.1 12 26.1 26.6 42.4 36.7 56.9 35.2 l5.5 -0.6 -8.7 8 c-9.2 8.5 -11.8 13 -5.1 8.9 1.9 -1.2 3.7 -2 4 -1.7 0.5 0.5 -1.9 25.3 -3.6 36.2 -0.5 3.3 -1.2 8.1 -1.5 10.6 -0.5 4.3 -0.8 4.7 -3.9 5.3 -1.8 0.4 -4.4 1.8 -5.7 3.2 -3.5 3.7 -3.1 8.5 1.4 17.1 2 4 3.7 7.9 3.7 8.7 0 5 -31.3 21.6 -40.9 21.6 -4.7 0 -9.5 -3.3 -7.2 -4.9 1.1 -0.7 1.2 -1.3 0.4 -2.3 -0.5 -0.7 -3.1 -3.9 -5.6 -7 -4.7 -5.9 -9.6 -15.2 -12.6 -24.1 -2.4 -6.9 -4.5 -7.6 -3.5 -1.1 1.1 8.2 4.1 16.6 8.4 23.6 2.2 3.7 3.7 7.3 3.4 8.1 -0.3 0.8 1.3 3.7 3.5 6.5 5.2 6.5 9.4 8 17.8 6.4 8 -1.6 26.4 -10.9 36.3 -18.4 13.6 -10.3 14.3 -10.8 16.9 -10.8 3.3 0 9.1 6.3 9.1 9.9 0 2.3 -2.9 5.3 -18.2 18.8 -29.9 26.3 -38.9 33 -47 35.5 -3.6 1.1 -3.7 1.2 -2.2 3 1.6 1.7 1.4 1.8 -5.9 1.8 -6.6 0 -19.4 -1.8 -25 -3.6 -1.6 -0.5 -1.8 -0.2 -1.2 1.5 0.3 1.2 0.4 2.1 0 2.1 -1.4 0 -9.4 -4.5 -14 -7.9 -7.8 -5.8 -7.9 -5.8 -7.2 -2.5 0.5 2.8 0.5 2.8 -3.1 -1.2 -2.1 -2.2 -5.2 -5.8 -7 -7.9 l-3.3 -4 0.4 3.7 c0.1 2 -0.1 3.4 -0.5 3.2 -1.5 -0.9 -5.6 -9.8 -7.3 -15.7 -2.4 -8.3 -3.9 -8.5 -3.3 -0.3 0.7 8.5 5 17.5 12 25.1 5.1 5.6 6.8 6.6 6.8 4 0 -2.1 0.3 -2 7.1 3 6.7 4.9 8.4 5.5 7.6 2.6 -0.4 -1.6 0.4 -1.5 6.7 1.5 7.3 3.5 18 6.3 19.2 5.1 0.4 -0.3 0.2 -1.3 -0.4 -2 -1 -1.1 0.2 -1.3 6.9 -0.9 8.8 0.5 20.6 -1.1 23.5 -3.3 1.5 -1.1 1.6 -1.6 0.6 -2.8 -1.1 -1.3 -1 -1.6 0.8 -2.2 1.2 -0.4 4.3 -2.6 6.8 -5 10.1 -9.2 22.7 -19.6 23 -18.7 0.5 1.6 -4.9 14.7 -6.8 16.2 -1.6 1.3 -9.1 22.9 -12 34.8 -0.9 3.4 -1.4 4.1 -2.4 3.2 -1.1 -0.8 -1.5 -0.5 -1.9 1.2 -0.9 3.9 -2.7 17.1 -3 21.8 -0.1 3.2 -0.6 4.5 -1.7 4.5 -1.2 0 -1.6 2.3 -2.1 12.2 -0.5 9.7 -1 12.6 -2.4 13.9 -1.6 1.6 -1.7 3.5 -1.1 19.8 0.3 10 1 23.5 1.6 30.1 0.5 6.6 1.3 19.6 1.6 29 0.6 15.1 0.5 16.8 -0.8 15.7 -2.3 -1.8 -2.8 0.3 -2.8 11.1 0 8.8 -0.7 12.1 -2.6 11.7 -0.4 -0.1 -1.6 2 -2.5 4.7 -1.9 5.7 -4.6 11.2 -6.5 13.4 -1.2 1.3 -2.2 1.4 -6.2 0.6 -5.2 -1.1 -7.1 -0.6 -26.2 6.1 -4.7 1.6 -10.4 3.3 -12.8 3.6 l-4.3 0.6 13.4 -13.2 c14.1 -13.9 20.9 -23.1 28.6 -38.4 6.3 -12.5 11.5 -33.3 8.7 -34.2 -0.6 -0.2 -2.5 4.1 -4.3 9.5 -10.3 30.7 -29.2 56.3 -54 73.1 -9.4 6.3 -31.4 19.3 -34.6 20.5 -2.8 0.9 -3.2 0.7 -5.7 -2.3 l-2.7 -3.4 3.3 -7.1 c6.6 -13.7 8 -31.2 3.9 -47 -3.3 -12.8 -13.5 -30.1 -22.4 -38.2 -3.5 -3.2 -11.1 -7.7 -11.7 -7 -0.3 0.3 2.9 4.6 7.3 9.5 21.1 24 28.3 52.4 19.3 76.4 -1.2 3.2 -2.9 6.7 -3.9 7.9 -1.8 2.2 -1.9 2.2 -6.1 0.5 -5.7 -2.2 -16.5 -3.3 -17.5 -1.7 -1 1.7 -0.6 1.9 5.9 3.6 15.9 4.1 24.7 11.9 23.4 20.6 -0.4 2.8 -2.8 3.8 -2.8 1.1 0 -3.7 -2.9 -8.9 -6.9 -12.5 -2.3 -2 -4.5 -3.7 -4.9 -3.7 -2.2 0 -1.9 1.5 0.9 5 3.8 4.8 6.2 12.2 4.9 15.5 -0.8 2.1 -1.6 2.5 -4.7 2.4 -2.1 0 -4.5 -0.3 -5.3 -0.6z m88.8 -509.4 c10.6 -4.9 18.8 -10.8 27.6 -19.7 9.5 -9.6 15.6 -20 15.6 -26.5 0 -1.9 -0.1 -1.9 -1.9 -0.3 -1.8 1.7 -1.9 1.6 -2.6 -0.3 -0.9 -3 -9.9 -10.7 -16 -13.6 -24.3 -11.9 -47.9 8.5 -42.1 36.4 1.6 7.7 4.7 13.8 9.8 19.6 1.6 1.9 2.6 3.5 2.2 3.5 -1.7 0 -7.5 4.1 -7 4.9 0.9 1.4 5.6 0.1 14.4 -4z"/>
  <path d="M389 621.4 c-6.9 -10.9 -6.5 -25.9 1 -36.1 4.2 -5.7 9.9 -8.3 18.4 -8.3 9.1 0 14.1 1.6 18.8 6.1 4.5 4.2 5 8.4 1.8 13.7 -2.4 3.9 -3.6 4.1 -4.4 0.7 -1.5 -6 -12.4 -8.5 -18.7 -4.2 -7.2 4.9 -7.6 14.5 -0.8 20.8 l3.9 3.6 -3.7 2.5 c-5.4 3.6 -10 5.8 -11.8 5.8 -0.8 0 -2.9 -2.1 -4.5 -4.6z"/>
  <path d="M391.9 576.3 c1.9 -1.8 4.1 -3.3 5 -3.3 0.9 0 0 1 -1.9 2.1 -1.9 1.2 -4.2 2.6 -5.1 3.3 -0.8 0.6 0 -0.4 2 -2.1z"/>
  <path d="M408.5 1120.5 c-0.5 -0.2 -9.9 -2.3 -20.7 -4.6 -10.9 -2.3 -19.8 -4.5 -19.8 -4.9 0 -0.4 3.3 -1 7.3 -1.4 4.4 -0.4 11.6 -2.2 18.7 -4.7 15.9 -5.6 19 -6.3 24 -4.9 11 3 19.1 19 9.5 19 -1.6 0 -2.5 -0.8 -2.9 -2.6 -0.4 -1.4 -1.4 -3.7 -2.2 -5 -2.3 -3.4 -11 -7.4 -16.2 -7.4 -5.8 0 -5.1 1.7 1.6 3.9 6.7 2.3 11.4 6.6 11 10.1 -0.3 2.2 -0.8 2.5 -4.8 2.7 -2.5 0.1 -4.9 0 -5.5 -0.2z"/>
  <path d="M73.5 1100.6 c-20.3 -6.6 -35.7 -16.7 -38.5 -25.2 -2.6 -7.8 3.3 -16.1 14.3 -20.3 19 -7.1 62.6 -11.1 120.3 -11.1 l30.1 0 0.7 3.8 c0.3 2 0.6 5.2 0.6 7 0 3.2 -0.1 3.2 -3.7 2.7 -21.8 -2.9 -68.1 -4.6 -93.4 -3.4 -42.7 2 -58.4 5.5 -61.9 13.8 -4.5 10.9 8.1 21.5 40.5 34.4 7 2.8 1.4 1.8 -9 -1.7z"/>
  <path d="M499 814.8 c0 -6.4 -9.1 -13.5 -15.7 -12.5 -1.8 0.3 -4.7 1.6 -6.4 2.7 -1.6 1.2 -3.1 2.1 -3.3 1.9 -1.3 -1.7 -7.6 -15.8 -7.6 -17 0 -0.9 0.7 -2.3 1.6 -3 1.4 -1.1 2.2 -1 5.5 0.9 4.5 2.6 9.8 2.8 14.2 0.6 1.8 -0.9 7.5 -5.1 12.7 -9.4 15.9 -12.9 19.8 -14.8 22.8 -11.8 2.1 2.1 1.3 4.5 -3.4 9.7 -5.6 6.2 -5.6 8.6 0.1 8.6 8.5 0 8.9 3.9 0.9 9 -4.5 2.9 -5.3 3.9 -4.4 5 0.8 0.9 1.9 1.1 4 0.5 5.5 -1.6 4.7 2.9 -1.3 7.4 -3.5 2.6 -17 9.6 -18.7 9.6 -0.5 0 -1 -1 -1 -2.2z"/>
  <path d="M478.5 783 c-0.8 -2.4 1.4 -23.8 2.6 -26 0.7 -1.3 0.8 -1.3 0.9 0.2 0 2.2 4.7 5.8 7.6 5.8 1.3 0 2.8 0.9 3.4 2 0.6 1.1 3.1 2.5 5.6 3.3 l4.6 1.3 -8.3 6.5 c-12.4 9.7 -15.2 10.8 -16.4 6.9z"/>
  <path d="M499.5 762.7 c-2 -1.5 -2 -1.5 0.5 -2 10.3 -2.1 14.7 -3 15.8 -3.4 0.6 -0.3 1.2 0.2 1.2 1.1 0 3.8 -13.7 7.1 -17.5 4.3z"/>
  <path d="M487.5 756 c-2.1 -3.5 6.1 -9.9 16 -12.5 9 -2.3 15.5 -0.2 15.5 5.1 0 2 -0.9 2.6 -5.2 3.9 -13.8 3.9 -25.1 5.4 -26.3 3.5z"/>
  <path d="M482.4 741.2 c1.1 -15.9 1.4 -16.6 6.9 -22.9 2.8 -3.2 6.2 -8.3 7.6 -11.3 2.4 -5.3 2.5 -5.4 3.2 -2.7 0.4 1.5 1.1 5.7 1.4 9.2 0.6 5.7 0.5 6.5 -0.9 6.5 -2.9 0 -9.2 3.8 -12.4 7.5 -4.4 4.9 -4.5 10.7 -0.4 13.3 l2.8 1.7 -4.4 4.2 -4.5 4.2 0.7 -9.7z"/>
  <path d="M514.9 737.5 c-1.9 -1.9 -5.2 -2.1 -14.7 -1.1 -8.4 0.9 -10.8 -0.1 -9.1 -3.7 1.6 -3.5 7.5 -7 12.7 -7.4 5.3 -0.5 9.1 1.6 11.6 6.5 3.2 6.3 2.9 9.1 -0.5 5.7z"/>
  <path d="M474.5 707.9 c-2.2 -0.4 -5.3 -1.2 -6.9 -1.9 -3.8 -1.4 -15.9 -9.5 -17.7 -11.7 -1 -1.2 -0.4 -1.1 2.1 0.6 5.5 3.5 11.6 6.1 17.5 7.4 8.2 1.7 12.7 -0.2 18.3 -7.5 5.7 -7.6 7.7 -7.7 6.9 -0.6 -1.3 10.3 -9.3 15.8 -20.2 13.7z"/>
  <path d="M473 692.6 c0 -0.7 -0.3 -2.8 -0.6 -4.5 l-0.6 -3.1 7.6 0 c4.2 0 7.6 0.4 7.6 1 0 2.6 -2.6 6 -5.3 7 -4.3 1.4 -8.7 1.3 -8.7 -0.4z"/>
  <path d="M459.9 687.6 c-4.6 -1.3 -15.2 -6.6 -14.6 -7.3 0.2 -0.2 4.2 0.6 8.8 1.7 4.6 1.1 9.4 2 10.5 2 2.2 0 3.9 2.4 2.8 4.1 -0.7 1.1 -1.7 1 -7.5 -0.5z"/>
  <path d="M251.7 637.3 c-0.4 -0.3 -13.4 -0.9 -28.9 -1.3 -23.4 -0.5 -28.9 -0.9 -31.8 -2.3 -3.4 -1.6 -2.7 -1.6 16.5 -1.1 20.9 0.5 33.5 1.6 44.5 3.8 4.3 0.9 5.5 1.4 3.4 1.5 -1.7 0 -3.4 -0.2 -3.7 -0.6z"/>
  <path d="M250.5 631.9 c-6 -1.1 -19.7 -2.3 -34 -2.9 -35.4 -1.5 -40.8 -2.7 -44.4 -9.9 -4.8 -9.4 -9.3 -35.7 -9.2 -54.5 0 -19.5 3.3 -31.8 14.1 -54.1 3.2 -6.6 9.3 -19.2 13.5 -27.9 7.5 -15.4 8.1 -16.3 16.9 -25.1 11.2 -11.2 40.6 -32.8 53.5 -39.2 8.6 -4.4 9.9 -4.7 17 -4.8 6.7 0 8.5 0.4 14.3 3.3 9.2 4.5 19.9 14.8 38.1 36.7 9.2 10.9 24 26.8 37.8 40.5 12.5 12.4 25.6 25.9 29 30 5.9 7.2 6 7.5 3.9 8.4 -3.1 1.4 -4.9 -0.1 -9.2 -7.5 -7.5 -13 -23.1 -28.7 -50.8 -51.4 -39.6 -32.4 -52 -44.9 -52 -52.5 0 -1.1 -0.4 -2 -1 -2 -1.7 0 -1.1 7.3 1.1 12 2.7 5.9 13.9 16.7 37.9 36.5 29.8 24.6 42.3 35.7 50.6 45.3 7.1 8.1 16 20.1 15.2 20.6 -0.9 0.5 -11.5 4.9 -13 5.3 -1.2 0.4 -2.1 -0.3 -2.8 -2.1 -1.5 -4.2 -9.3 -15.2 -16.7 -23.8 -8.7 -10.2 -23.4 -22.9 -45.9 -39.7 -14 -10.5 -21.5 -17 -34.4 -30.1 -9.1 -9.2 -17.5 -17.3 -18.8 -17.9 -2.4 -1.3 -6.2 -0.7 -6.2 1 0 0.5 0.9 0.9 1.9 0.9 2.3 0 5.7 3.3 15.1 14.4 9.2 11 20.4 20.9 40 35.6 19.9 14.9 32.1 25.2 41.5 35.1 13.9 14.7 24.8 30.9 20.7 30.9 -0.5 0 -3.7 2.6 -7.2 5.7 l-6.2 5.7 -2.1 -2.9 c-8 -10.9 -20.8 -22.8 -47.2 -43.9 -30.6 -24.5 -64.2 -47.3 -77.3 -52.6 -9.5 -3.8 -22.7 0.8 -27.5 9.5 -0.9 1.7 -0.5 1.6 2.4 -0.6 9.2 -7 17 -8.1 26.2 -3.5 15.7 7.7 59.9 39.3 90.2 64.5 11.4 9.5 32.5 30.1 32.5 31.7 0 0.7 -2.5 4.8 -5.6 9.1 -3.1 4.3 -6.1 8.8 -6.7 10.1 -1.3 2.9 -1.8 2.8 -5.3 -0.9 -5.6 -6 -19.7 -16.3 -50.2 -36.6 -24.7 -16.6 -34.2 -22.3 -48.7 -29.4 -29.7 -14.5 -43.8 -18 -50.2 -12.5 -2.9 2.5 -2.6 4.9 0.3 2.5 3.1 -2.6 12.1 -1.4 23.5 3 13.7 5.3 38.5 17.6 47.9 23.8 34.6 22.4 71.4 48 78.9 54.9 0.2 0.1 -1.3 4.5 -3.3 9.6 -1.9 5.1 -4 11.2 -4.6 13.4 l-1 4.2 -13.8 -9.2 c-33.1 -22.1 -66.1 -38.6 -94.9 -47.5 -18.6 -5.7 -37.7 -10.2 -44.1 -10.4 -6 -0.2 -6.5 0 -9.3 3.1 -3.9 4.4 -4 7.6 -0.1 3.9 3.8 -3.7 9.4 -3.6 24.6 0.4 46.8 12 72 23.3 121.6 54.2 8 4.9 14.6 9.1 14.8 9.2 0.1 0.1 -0.3 3.4 -0.9 7.4 l-1.2 7.1 -9.6 0 c-9.2 0 -10.1 -0.2 -17.7 -3.9 -18.3 -9 -36.8 -15.3 -59.9 -20.5 -15 -3.4 -53 -11.3 -58.2 -12.1 -5.8 -0.9 -11 0.9 -12.8 4.5 -1.7 3.3 -2 10.6 -0.5 11.5 0.6 0.4 1 -0.9 1 -3.2 0 -4.8 2.1 -7.9 5.9 -8.8 1.5 -0.3 7 0.3 12.2 1.4 61.9 13.2 80.6 18 96.8 24.8 4.7 2 9 4 9.6 4.5 0.5 0.4 -2.3 0.8 -6.3 0.8 -9.9 0 -16.4 1.6 -22.3 5.6 -2.8 1.9 -5.6 3.3 -6.3 3.3 -0.6 -0.1 -5.6 -1 -11.1 -2z"/>
  <path d="M334.7 621.9 c3.3 -26.7 17.2 -54 36 -70.9 8.2 -7.3 20.2 -13 28.4 -13.6 7.4 -0.5 7.7 -0.8 -7.1 7.7 -15.7 9.2 -23 16.9 -28.3 30.2 -1.7 4.2 -2.2 8.2 -2.6 21.9 -0.6 16 -0.7 16.7 -3.1 19.3 -3.5 3.8 -13.3 8.5 -19 9.2 l-4.8 0.6 0.5 -4.4z"/>
  <path d="M547.2 609.7 c-3.3 -3.4 -5.5 -8.4 -6.7 -15.5 -0.4 -2.3 -1.1 -4.2 -1.5 -4.2 -2.6 0 -2.2 10.1 0.5 16.8 1.9 4.3 0.1 4.3 -5.7 -0.1 -6.6 -4.9 -9 -10.5 -8.6 -19.7 0.5 -12.6 5.7 -17.1 20.4 -17.8 10.4 -0.5 17.7 1 24.5 5.1 9.1 5.5 12.2 14.3 7.9 22.7 -4.3 8.5 -15.4 16 -23.6 16 -3.2 0 -4.6 -0.6 -7.2 -3.3z"/>
  <path d="M431.7 562 c-3.2 -3.8 -4.2 -6.9 -2.7 -8.4 2 -2 16.8 -1.3 23 1.2 7.4 2.9 11.9 6.6 10.3 8.3 -1 1 -1.7 0.9 -3.5 -0.8 -2.9 -2.7 -7 -4.3 -11.1 -4.3 -3.5 0 -9.4 3.2 -10.3 5.5 -0.9 2.3 -3 1.8 -5.7 -1.5z"/>
  <path d="M465.9 556.7 c-2.4 -2.1 -7.8 -5.5 -12.1 -7.5 -5.5 -2.5 -8 -4.3 -8.2 -5.7 -0.2 -1.1 -0.9 -5.6 -1.6 -9.9 -1.3 -8.9 -5 -20.6 -8.8 -28.1 -4.8 -9.6 -10.7 -17.1 -25.7 -32.5 -17 -17.5 -25 -28.6 -33 -45.3 -11.1 -23.3 -15.4 -43.9 -14.2 -68.6 2.8 -56.8 34 -112.1 69.6 -123.1 20.7 -6.5 42.5 -0.6 59.1 15.9 29.9 29.8 36.9 73.9 21.3 134.6 -4.9 19.4 -11 35.8 -21.3 57.5 -15.6 32.8 -18.5 44.6 -18.4 74 0 13.8 0.5 22.2 1.7 28.8 2.3 12.5 2.3 12.9 -1.1 13.4 -2.3 0.3 -3.8 -0.4 -7.3 -3.5z m-23.7 -88.7 c20.6 -7.7 43.7 -33.8 56.8 -63.9 5.6 -12.9 10.4 -29.3 12.9 -44 2.6 -15.2 2.8 -38.6 0.6 -51.5 -2.5 -14.3 -10.2 -36.1 -13.5 -38.1 -1.6 -1 -1.2 1 2.5 11.6 9.3 26.8 10.7 52.5 4.4 83.4 -7.1 34.9 -26.1 69.4 -48.7 88.1 -7.8 6.5 -20.8 13.1 -27.5 14 -4.6 0.7 -5.5 1.3 -3.9 2.8 1.2 1.3 10.2 0 16.4 -2.4z"/>
  <path d="M421.8 556.3 c-3.3 -5.9 -2.1 -8.3 4 -8.3 l2.6 0 -2.1 1.5 c-1.5 1.1 -2.3 2.8 -2.5 5.8 l-0.3 4.2 -1.7 -3.2z"/>
 </g>
</svg>